<svg version="1.1" xmlns="http://www.w3.org/2000/svg" xmlns:xlink="http://www.w3.org/1999/xlink" width="60" height="60" viewBox="0,0,256,256"><g fill="none" fill-rule="nonzero" stroke="none" stroke-width="1" stroke-linecap="butt" stroke-linejoin="miter" stroke-miterlimit="10" stroke-dasharray="" stroke-dashoffset="0" font-family="none" font-weight="none" font-size="none" text-anchor="none" style="mix-blend-mode: normal"><g transform="translate(0,-0.00254) scale(4.26667,4.26667)"><path d="M10,25.4651h13c0.553,0 1,-0.448 1,-1c0,-0.552 -0.447,-1 -1,-1h-13c-0.553,0 -1,0.448 -1,1c0,0.552 0.447,1 1,1z" fill="#bf994d"></path><path d="M36,29.4651h-26c-0.553,0 -1,0.448 -1,1c0,0.552 0.447,1 1,1h26c0.553,0 1,-0.448 1,-1c0,-0.552 -0.447,-1 -1,-1z" fill="#bf994d"></path><path d="M36,35.4651h-26c-0.553,0 -1,0.448 -1,1c0,0.552 0.447,1 1,1h26c0.553,0 1,-0.448 1,-1c0,-0.552 -0.447,-1 -1,-1z" fill="#bf994d"></path><path d="M54.072,2.53509l-34.142,-0.07c-3.27,0 -5.93,2.66 -5.93,5.93v5.12401l-8.07,0.017c-3.27,0 -5.93,2.66 -5.93,5.93v21.141c0,3.27 2.66,5.929 5.93,5.929h6.07v10c0,0.413 0.254,0.784 0.64,0.933c0.117,0.045 0.239,0.067 0.36,0.067c0.276,0 0.547,-0.115 0.74,-0.327l9.704,-10.675l16.626,-0.068c3.27,0 5.93,-2.66 5.93,-5.929v-0.113l5.26,5.786c0.193,0.212 0.464,0.327 0.74,0.327c0.121,0 0.243,-0.022 0.36,-0.067c0.386,-0.149 0.64,-0.52 0.64,-0.933v-10h1.07c3.27,0 5.93,-2.66 5.93,-5.929v-21.14301c0,-3.269 -2.659,-5.929 -5.928,-5.93zM44,40.5361c0,2.167 -1.763,3.929 -3.934,3.929l-17.07,0.07c-0.28,0.001 -0.548,0.12 -0.736,0.327l-8.26,9.087v-8.414c0,-0.552 -0.447,-1 -1,-1h-7.07c-2.167,0 -3.93,-1.763 -3.93,-3.929v-21.141c0,-2.167 1.763,-3.93 3.932,-3.93l9.068,-0.019c0.001,0 0.001,0 0.002,0l25.068,-0.052c2.167,0 3.93,1.763 3.93,3.93v18.441zM58,29.6061c0,2.167 -1.763,3.929 -3.93,3.929h-2.07c-0.553,0 -1,0.448 -1,1v8.414l-5,-5.5v-18.054c0,-3.27 -2.66,-5.93 -5.932,-5.93l-24.068,0.049v-5.12001c0,-2.167 1.763,-3.93 3.928,-3.93l34.141,0.07c0.001,0 0.001,0 0.002,0c2.167,0 3.93,1.763 3.93,3.93v21.14201z" fill="#0c1014"></path></g></g></svg>