<svg version="1.1" xmlns="http://www.w3.org/2000/svg" xmlns:xlink="http://www.w3.org/1999/xlink" width="60" height="60" viewBox="0,0,256,256"><g fill="none" fill-rule="nonzero" stroke="none" stroke-width="1" stroke-linecap="butt" stroke-linejoin="miter" stroke-miterlimit="10" stroke-dasharray="" stroke-dashoffset="0" font-family="none" font-weight="none" font-size="none" text-anchor="none" style="mix-blend-mode: normal"><g transform="translate(0,-0.00025) scale(4.26667,4.26667)"><path d="M6.17596,17.7323h14.09364c0.4856,0 0.879,-0.3936 0.879,-0.8791c0,-0.4855 -0.3934,-0.8791 -0.879,-0.8791h-14.09364c-0.48561,0 -0.87908,0.3936 -0.87908,0.8791c0,0.4855 0.39359,0.8791 0.87908,0.8791z" fill="#bf994d"></path><path d="M6.17596,22.2154h10.11044c0.4856,0 0.879,-0.3935 0.879,-0.879c0,-0.4855 -0.3934,-0.8791 -0.879,-0.8791h-10.11044c-0.48561,0 -0.87908,0.3936 -0.87908,0.8791c0,0.4855 0.39359,0.879 0.87908,0.879z" fill="#bf994d"></path><path d="M6.17596,44.3036h11.98204c0.4856,0 0.8791,-0.3936 0.8791,-0.8791c0,-0.4855 -0.3935,-0.8791 -0.8791,-0.8791h-11.98204c-0.48561,0 -0.87908,0.3936 -0.87908,0.8791c0,0.4855 0.39359,0.8791 0.87908,0.8791z" fill="#bf994d"></path><path d="M6.17596,48.7867h13.27874c0.4856,0 0.8791,-0.3936 0.8791,-0.879c0,-0.4855 -0.3935,-0.8791 -0.8791,-0.8791h-13.27874c-0.48561,0 -0.87908,0.3936 -0.87908,0.8791c0,0.4854 0.39359,0.879 0.87908,0.879z" fill="#bf994d"></path><path d="M6.17596,53.2699h15.06674c0.4856,0 0.8791,-0.3936 0.8791,-0.8791c0,-0.4855 -0.3935,-0.8791 -0.8791,-0.8791h-15.06674c-0.48561,0 -0.87908,0.3936 -0.87908,0.8791c0,0.4855 0.39359,0.8791 0.87908,0.8791z" fill="#bf994d"></path><path d="M59.9592,46.7565c-0.1494,-1.0408 -0.6955,-1.9612 -1.5372,-2.5915l-13.8494,-10.37c0.5583,-1.4099 0.8653,-2.9457 0.8653,-4.5519c0,-3.2457 -1.2538,-6.2035 -3.3018,-8.4163v-9.5875c0,-1.62184 -1.3195,-2.94141 -2.9414,-2.94141h-8.3901v-1.061c0,-0.86971 -0.7076,-1.57743 -1.5774,-1.57743h-2.946c-0.0454,-2.83582 -2.3665,-5.12894 -5.2131,-5.12894c-2.8466,0 -5.1678,2.29301 -5.2131,5.12906h-2.9461c-0.8699,0 -1.5775,0.7076 -1.5775,1.57743v1.061h-8.38998c-1.62185,0 -2.94142,1.31945 -2.94142,2.94129v36.5768c0,0.4855 0.39348,0.8791 0.87909,0.8791c0.4856,0 0.87908,-0.3936 0.87908,-0.8791v-36.5768c0,-0.6524 0.53074,-1.1832 1.18325,-1.1832h8.39008v1.061c0,0.8697 0.7076,1.5774 1.5775,1.5774h16.3182c0.8698,0 1.5774,-0.7076 1.5774,-1.5774v-1.061h8.3901c0.6524,0 1.1833,0.5307 1.1833,1.1832v8.0149c-2.0571,-1.5161 -4.5968,-2.4136 -7.3426,-2.4136c-6.8389,0 -12.4025,5.5637 -12.4025,12.4025c0,2.6495 0.8237,5.1773 2.3824,7.3104c0.2865,0.3919 0.8365,0.4776 1.2284,0.1912c0.3921,-0.2865 0.4775,-0.8365 0.1912,-1.2284c-1.3372,-1.8299 -2.044,-3.9992 -2.044,-6.2731c0,-5.8692 4.7751,-10.6443 10.6443,-10.6443c5.8693,0 10.6444,4.7751 10.6444,10.6443c0,5.8693 -4.775,10.6444 -10.6444,10.6444c-2.0896,0 -4.1121,-0.605 -5.8487,-1.7493c-0.4055,-0.2671 -0.9507,-0.1551 -1.2178,0.2504c-0.2671,0.4054 -0.1551,0.9506 0.2503,1.2178c2.0248,1.3341 4.3818,2.0394 6.8162,2.0394c2.3641,0 4.5755,-0.6652 6.4577,-1.8178l0.885,0.6626v16.0376c0,0.6524 -0.5308,1.1832 -1.1833,1.1832h-36.25318c-0.6524,0 -1.18325,-0.5308 -1.18325,-1.1832v-4.6095c0,-0.4855 -0.39348,-0.8791 -0.87908,-0.8791c-0.48561,0 -0.87909,0.3936 -0.87909,0.8791v4.6095c0,1.6219 1.31957,2.9413 2.94142,2.9413h36.25328c1.6219,0 2.9414,-1.3194 2.9414,-2.9413v-14.7213l11.5667,8.6608c0.6883,0.5154 1.5066,0.7862 2.3515,0.7862c0.1884,0 0.3782,-0.0134 0.5681,-0.0407c1.041,-0.1496 1.9612,-0.6956 2.5916,-1.5374c0.63,-0.8417 0.8948,-1.8785 0.7452,-2.9194zM29.0464,10.9363h-15.9567v-3.51867h3.2632c0.6946,0 1.2597,-0.56507 1.2597,-1.25967v-0.41387c0,-1.90539 1.5502,-3.45552 3.4555,-3.45552c1.9052,0 3.4555,1.55013 3.4555,3.45552v0.41387c0,0.6946 0.5649,1.25967 1.2595,1.25967h3.2632v3.51867zM40.9889,38.7516c1.1198,-0.9382 2.0725,-2.0696 2.8052,-3.3433l2.0504,1.5354l-2.6117,3.488zM57.8064,48.6222c-0.3488,0.4659 -0.8581,0.7679 -1.4341,0.8507c-0.5764,0.083 -1.15,-0.0638 -1.6158,-0.4126l-10.1163,-7.5748l2.6118,-3.4881l10.1162,7.5748c0.9617,0.7203 1.1582,2.0884 0.4382,3.05z" fill="#0c1014"></path><path d="M33.0356,37.473c4.5379,0 8.2297,-3.692 8.2297,-8.2298c0,-4.5378 -3.6918,-8.2298 -8.2297,-8.2298c-4.538,0 -8.2299,3.692 -8.2299,8.2298c0,4.538 3.6919,8.2298 8.2299,8.2298zM33.0356,22.7716c3.5683,0 6.4716,2.9032 6.4716,6.4716c0,3.5685 -2.9033,6.4716 -6.4716,6.4716c-3.5686,0 -6.4718,-2.9032 -6.4718,-6.4716c0,-3.5684 2.9031,-6.4716 6.4718,-6.4716z" fill="#bf994d"></path></g></g></svg>