<svg version="1.1" xmlns="http://www.w3.org/2000/svg" xmlns:xlink="http://www.w3.org/1999/xlink" width="60" height="60" viewBox="0,0,256,256"><g fill="none" fill-rule="nonzero" stroke="none" stroke-width="1" stroke-linecap="butt" stroke-linejoin="miter" stroke-miterlimit="10" stroke-dasharray="" stroke-dashoffset="0" font-family="none" font-weight="none" font-size="none" text-anchor="none" style="mix-blend-mode: normal"><g transform="translate(-0.00006,0) scale(4.26667,4.26667)"><path d="M8.02734,57.3632v-45.4438h-1.75781v45.4438c0,1.4539 1.18277,2.6367 2.63672,2.6367h38.94815v-1.7578h-38.94815c-0.48469,0 -0.87891,-0.3942 -0.87891,-0.8789z" fill="#000000"></path><path d="M51.0938,5.27344h-9.668v-1.75782h-7.1196c-0.4083,-2.00332 -2.1841,-3.51562 -4.3062,-3.51562c-2.1221,0 -3.8978,1.5123 -4.3062,3.51562h-7.1196v1.75782h-9.66795c-1.45395,0 -2.63672,1.18277 -2.63672,2.63672v4.39454h1.75781v-4.39454c0,-0.48469 0.39422,-0.87891 0.87891,-0.87891h9.66795v5.27345h22.8516v-5.27345h9.668c0.4846,0 0.8789,0.39422 0.8789,0.87891v49.45314c0,0.4847 -0.3943,0.8789 -0.8789,0.8789h-4.3945v1.7578h4.3945c1.4538,0 2.6367,-1.1828 2.6367,-2.6367v-49.45314c0,-1.45395 -1.1829,-2.63672 -2.6367,-2.63672zM39.668,10.5468h-19.336v-5.27336h7.0313v-0.87891c0,-1.45394 1.1828,-2.63672 2.6367,-2.63672c1.4539,0 2.6367,1.18278 2.6367,2.63672v0.87891h7.0313z" fill="#000000"></path><path d="M39.6431,45c-2.3631,0 -4.2857,1.9226 -4.2857,4.2857c0,2.3632 1.9226,4.2857 4.2857,4.2857c2.3632,0 4.2858,-1.9225 4.2858,-4.2857c0,-2.3631 -1.9226,-4.2857 -4.2858,-4.2857zM39.6431,52.1429c-1.5754,0 -2.8571,-1.2818 -2.8571,-2.8572c0,-1.5754 1.2817,-2.8571 2.8571,-2.8571c1.5755,0 2.8572,1.2817 2.8572,2.8571c0,1.5754 -1.2817,2.8572 -2.8572,2.8572z" fill="#bf994d"></path><path d="M24.6427,22.5001c0,-2.3632 -1.9226,-4.2857 -4.2857,-4.2857c-2.3631,0 -4.2857,1.9225 -4.2857,4.2857c0,2.3631 1.9226,4.2857 4.2857,4.2857c2.3631,0 4.2857,-1.9226 4.2857,-4.2857zM20.357,25.3572c-1.5754,0 -2.8571,-1.2817 -2.8571,-2.8571c0,-1.5755 1.2817,-2.8572 2.8571,-2.8572c1.5754,0 2.8571,1.2817 2.8571,2.8572c0,1.5754 -1.2817,2.8571 -2.8571,2.8571z" fill="#bf994d"></path><path d="M27.9799,39.5544l2.0203,-2.0204l2.0204,2.0204l1.01,-1.0102l-2.0203,-2.0203l2.0203,-2.0203l-1.01,-1.0102l-2.0204,2.0204l-2.0203,-2.0204l-1.0102,1.0102l2.0204,2.0203l-2.0204,2.0203z" fill="#000000"></path><path d="M36.551,26.6019l2.0204,-2.0203l2.0204,2.0203l1.01,-1.0101l-2.0203,-2.0203l2.0203,-2.0204l-1.01,-1.0101l-2.0204,2.0203l-2.0204,-2.0203l-1.01,1.0101l2.0203,2.0204l-2.0203,2.0203z" fill="#000000"></path><path d="M24.2849,47.3334v-1.4285c-1.1816,0 -2.1428,-0.9613 -2.1428,-2.1429v-11.3233l0.8009,0.8009l1.0101,-1.0101l-2.5253,-2.5254l-2.5255,2.5253l1.0101,1.0101l0.801,-0.8009v11.3234c0.0001,1.9693 1.6022,3.5714 3.5715,3.5714z" fill="#bf994d"></path><path d="M29.1211,3.51562h1.7578v1.75782h-1.7578z" fill="#000000"></path><path d="M35,33.5714h1.4286v-1.1326l1.4285,1.4284v7.0378h1.4286v-7.6294l-1.8469,-1.847h1.1326v-1.4286h-3.5714z" fill="#bf994d"></path></g></g></svg>